<svg width="613" height="511" viewBox="0 0 613 511" fill="none" xmlns="http://www.w3.org/2000/svg">
<path d="M14.35 262H71.05C90.1833 262 104.533 267.133 114.1 277.4C123.667 287.667 128.45 302.717 128.45 322.55V346.7C128.45 366.533 123.667 381.583 114.1 391.85C104.533 402.117 90.1833 407.25 71.05 407.25H52.85V507H14.35V262ZM71.05 372.25C77.35 372.25 82.0167 370.5 85.05 367C88.3167 363.5 89.95 357.55 89.95 349.15V320.1C89.95 311.7 88.3167 305.75 85.05 302.25C82.0167 298.75 77.35 297 71.05 297H52.85V372.25H71.05ZM149.36 262H254.36V297H187.86V361.75H240.71V396.75H187.86V472H254.36V507H149.36V262ZM276.508 262H333.558C353.392 262 367.858 266.667 376.958 276C386.058 285.1 390.608 299.217 390.608 318.35V333.4C390.608 358.833 382.208 374.933 365.408 381.7V382.4C374.742 385.2 381.275 390.917 385.008 399.55C388.975 408.183 390.958 419.733 390.958 434.2V477.25C390.958 484.25 391.192 489.967 391.658 494.4C392.125 498.6 393.292 502.8 395.158 507H355.958C354.558 503.033 353.625 499.3 353.158 495.8C352.692 492.3 352.458 486 352.458 476.9V432.1C352.458 420.9 350.592 413.083 346.858 408.65C343.358 404.217 337.175 402 328.308 402H315.008V507H276.508V262ZM329.008 367C336.708 367 342.425 365.017 346.158 361.05C350.125 357.083 352.108 350.433 352.108 341.1V322.2C352.108 313.333 350.475 306.917 347.208 302.95C344.175 298.983 339.275 297 332.508 297H315.008V367H329.008ZM417.67 262H456.17V507H417.67V262ZM539.254 510.5C520.821 510.5 506.704 505.25 496.904 494.75C487.338 484.25 482.554 469.433 482.554 450.3V318.7C482.554 299.567 487.338 284.75 496.904 274.25C506.704 263.75 520.821 258.5 539.254 258.5C557.688 258.5 571.688 263.75 581.254 274.25C591.054 284.75 595.954 299.567 595.954 318.7V344.6H559.554V316.25C559.554 301.083 553.138 293.5 540.304 293.5C527.471 293.5 521.054 301.083 521.054 316.25V453.1C521.054 468.033 527.471 475.5 540.304 475.5C553.138 475.5 559.554 468.033 559.554 453.1V415.65H595.954V450.3C595.954 469.433 591.054 484.25 581.254 494.75C571.688 505.25 557.688 510.5 539.254 510.5Z" fill="#E8E7E9"/>
<path fill-rule="evenodd" clip-rule="evenodd" d="M52.8501 0H14.3501V245H116.2V210H52.8501V0ZM147.963 232.75C157.763 243.25 171.996 248.5 190.663 248.5C209.329 248.5 223.563 243.25 233.363 232.75C243.163 222.017 248.063 206.733 248.063 186.9V0H210.963V189.7C210.963 198.1 209.213 204.167 205.713 207.9C202.446 211.633 197.663 213.5 191.363 213.5C185.063 213.5 180.163 211.633 176.663 207.9C173.396 204.167 171.763 198.1 171.763 189.7V0H133.263V186.9C133.263 206.733 138.163 222.017 147.963 232.75ZM313.983 0H275.483V245H313.983V166.95L329.383 135.8L361.933 245H402.183L355.633 89.95L401.483 0H362.983L313.983 103.25V0ZM502.305 0H450.155L410.255 245H445.955L452.955 197.05H496.705V197H492V163.8H457.505L474.305 42.7H475.005L492.042 163H528.85L502.305 0ZM534.388 197H496.798L503.705 245H542.205L534.388 197Z" fill="#E8E7E9"/>
</svg>
